<?xml version="1.0" encoding="UTF-8"?><svg id="Farbe" xmlns="http://www.w3.org/2000/svg" viewBox="0 0 617.97 303.3"><defs><style>.cls-1{fill:#c1ca0f;}.cls-2{fill:#a7a9ad;}</style></defs><g id="horizontales_logo"><g><g><path class="cls-2" d="M357.77,139.24c7.74,0,10.62,5.4,10.62,12.3,0,2.91-.98,5.95-1.47,7.06h-20.29c-.71,7.03,3.18,10.02,8.26,10.02,2.34,0,4.92-1.25,6.79-2.61l2.66,4.67c-2.66,1.9-6.63,3.53-11.38,3.53-7.96,0-13.36-5.19-13.36-14.12,0-12.44,9.4-20.86,18.17-20.86Zm4.24,14.75c.19-.87,.33-1.85,.33-2.93,0-3.23-1.38-6.14-5.43-6.14s-8.01,3.37-9.61,9.07h14.72Z"/><path class="cls-2" d="M371.77,160.64c0-11.95,8.75-21.4,19.12-21.4,4.07,0,6.95,1.9,8.8,4.1l-4.13,4.37c-1.55-1.71-2.91-2.55-5.13-2.55-5.97,0-11.22,6.95-11.22,15.24,0,5.02,2.23,7.9,6.74,7.9,2.58,0,4.59-1.22,6.3-2.55l3.12,4.59c-2.47,1.85-5.89,3.88-10.95,3.88-7.33,0-12.66-4.94-12.66-13.58Z"/><path class="cls-2" d="M398.72,160.64c0-12.74,9.21-21.4,18.36-21.4,7.5,0,12.44,5.27,12.44,13.58,0,12.74-9.21,21.4-18.36,21.4-7.5,0-12.44-5.27-12.44-13.58Zm23.44-7.58c0-5.02-2.04-7.9-5.87-7.9-5.3,0-10.21,6.71-10.21,15.24,0,5.02,2.04,7.9,5.87,7.9,5.3,0,10.21-6.71,10.21-15.24Z"/><path class="cls-2" d="M429.06,169.2c15.64-13.09,24.52-19.91,24.52-27.86,0-3.48-2.06-6.11-6.11-6.11-2.69,0-5.21,1.47-7.96,3.88l-3.58-4.35c4.05-3.42,8.07-5.38,12.41-5.38,7.77,0,12.36,4.59,12.36,11.14,0,9.13-7.28,15.45-19.99,26.72h16.62l-1.17,6.16h-27.89l.79-4.21Z"/><path class="cls-2" d="M463.23,159.12c0-17.68,9.02-29.74,18.44-29.74,6.9,0,11.38,5.87,11.38,15.24,0,17.68-8.94,29.6-18.36,29.6-6.95,0-11.46-5.76-11.46-15.1Zm23.11-15.07c0-5.68-1.74-8.99-5.13-8.99-5.92,0-11.19,12.17-11.19,24.63,0,5.62,1.68,8.85,5.08,8.85,5.92,0,11.24-11.98,11.24-24.5Z"/><path class="cls-2" d="M492.67,166.67l4.67-3.77c2.09,3.01,4.75,5.4,9.04,5.4,4.89,0,9.26-3.8,9.26-9.83,0-4.75-2.66-7.11-6.84-7.11-2.53,0-3.91,.54-6.79,2.12l-2.85-2.34,5.35-20.94h21.81l-1.22,6.17h-15.48l-2.93,10.59c1.44-.71,3.01-1.11,4.89-1.11,6.52,0,11.43,3.88,11.43,11.41,0,10.46-8.17,16.98-16.86,16.98-5.65,0-10.24-2.8-13.47-7.55Z"/><path class="cls-2" d="M527.7,159.12c0-17.68,9.02-29.74,18.44-29.74,6.9,0,11.38,5.87,11.38,15.24,0,17.68-8.94,29.6-18.36,29.6-6.95,0-11.46-5.76-11.46-15.1Zm23.11-15.07c0-5.68-1.74-8.99-5.13-8.99-5.92,0-11.19,12.17-11.19,24.63,0,5.62,1.68,8.85,5.08,8.85,5.92,0,11.24-11.98,11.24-24.5Z"/></g><g><path class="cls-2" d="M116.05,93.9h-25.9c-7.11,10.77-12.13,22.78-14.8,35.4h40.8v-35.4h-.1Z"/><path class="cls-2" d="M120.05,213.3v26.2c17.27,11.49,37.56,17.61,58.3,17.6,19.01,.14,37.65-5.21,53.7-15.4v-28.3H120.05v-.1Z"/><path class="cls-2" d="M236.05,238.9c9.75-6.96,18.15-15.64,24.8-25.6h-24.8v25.6Z"/><path class="cls-2" d="M236.05,209.4h27.3c6.63-10.89,11.25-22.88,13.65-35.4h-41v35.4h.05Z"/><path class="cls-2" d="M236.05,170h41.7c1.87-12.2,1.87-24.6,0-36.8h-41.7v36.8Z"/><path class="cls-2" d="M236.05,93.9v35.4h41c-2.43-12.5-7.03-24.49-13.6-35.4h-27.4Z"/><path class="cls-2" d="M260.85,89.9c-6.65-9.96-15.05-18.64-24.8-25.6v25.6h24.8Z"/><path class="cls-2" d="M116.05,66.5c-8.92,6.53-16.74,14.43-23.2,23.4h23.2v-23.4Z"/><path class="cls-2" d="M232.05,89.9v-28.3c-16.04-10.21-34.69-15.55-53.7-15.4-20.75-.03-41.04,6.1-58.3,17.6v26.1h112Z"/><path class="cls-2" d="M92.85,213.3c6.51,8.93,14.33,16.81,23.2,23.4v-23.4h-23.2Z"/><path class="cls-2" d="M116.05,173.9h-40.7c2.76,12.6,7.77,24.59,14.8,35.4h25.9v-35.4Z"/><path class="cls-2" d="M116.05,133.2h-41.5c-1.02,6.08-1.54,12.23-1.55,18.4-.03,6.17,.51,12.33,1.6,18.4h41.5l-.05-36.8Z"/><path class="cls-1" d="M120.05,133.2h112v36.8H120.05v-36.8Z"/><path class="cls-1" d="M120.05,93.9h112v35.4H120.05v-35.4Z"/><path class="cls-1" d="M120.05,173.9h112v35.4H120.05v-35.4Z"/></g></g></g></svg>